<?xml version="1.0" encoding="utf-8" ?>
<svg baseProfile="full" height="20px" version="1.1" width="100px" xmlns="http://www.w3.org/2000/svg" xmlns:ev="http://www.w3.org/2001/xml-events" xmlns:xlink="http://www.w3.org/1999/xlink"><defs /><polygon fill="gold" points="10,2 12,8 18,8 14,12 16,18 10,14 4,18 6,12 2,8 8,8" /><polygon fill="gold" points="30,2 32,8 38,8 34,12 36,18 30,14 24,18 26,12 22,8 28,8" /><polygon fill="gold" points="50,2 52,8 58,8 54,12 56,18 50,14 44,18 46,12 42,8 48,8" /><polygon fill="gold" points="70,2 72,8 78,8 74,12 76,18 70,14 64,18 66,12 62,8 68,8" /><polygon fill="gold" points="90,2 92,8 98,8 94,12 96,18 90,14 84,18 86,12 82,8 88,8" /></svg>