<svg width="1497" height="720" viewBox="0 0 1497 720" fill="none" xmlns="http://www.w3.org/2000/svg">
<path d="M504.75 163H542.25V463H504.75V325.5H229.75V463H192.25V163H229.75V294.25H504.75V163ZM617.25 463V163H917.25V194.25H654.75V294.25H904.75V325.5H654.75V431.75H917.25V463H617.25ZM1279.55 256.75C1279.55 241.125 1277.86 228.755 1274.48 219.641C1271.09 210.526 1265.49 203.625 1257.68 198.938C1249.87 194.25 1239.58 191.255 1226.82 189.953C1214.19 188.651 1198.5 188 1179.75 188H1092.05C1075.39 188 1061.33 188.521 1049.87 189.562C1038.54 190.474 1029.16 192.427 1021.74 195.422C1014.32 198.417 1008.59 202.714 1004.55 208.312C1000.52 213.911 997.589 221.333 995.766 230.578C993.943 239.823 992.901 251.216 992.641 264.758C992.38 278.169 992.25 294.25 992.25 313C992.25 331.75 992.38 347.896 992.641 361.438C993.031 374.849 994.138 386.177 995.961 395.422C997.784 404.667 1000.65 412.089 1004.55 417.688C1008.59 423.286 1014.32 427.583 1021.74 430.578C1029.16 433.573 1038.54 435.591 1049.87 436.633C1061.33 437.544 1075.39 438 1092.05 438H1179.75C1194.33 438 1206.9 437.609 1217.45 436.828C1227.99 436.047 1236.98 434.615 1244.4 432.531C1251.82 430.448 1257.81 427.583 1262.37 423.938C1266.92 420.292 1270.44 415.734 1272.91 410.266C1275.52 404.667 1277.28 398.026 1278.19 390.344C1279.1 382.531 1279.55 373.417 1279.55 363H1317.05C1317.05 375.5 1316.27 386.828 1314.71 396.984C1313.15 407.01 1310.35 415.995 1306.31 423.938C1302.41 431.75 1297.13 438.521 1290.49 444.25C1283.85 449.979 1275.45 454.732 1265.3 458.508C1255.14 462.154 1243.03 464.823 1228.97 466.516C1214.91 468.339 1198.5 469.25 1179.75 469.25H1092.05C1069.14 469.25 1049.8 467.818 1034.05 464.953C1018.42 462.219 1005.53 458.052 995.375 452.453C985.219 446.724 977.341 439.562 971.742 430.969C966.273 422.375 962.237 412.284 959.633 400.695C957.159 389.107 955.727 376.021 955.336 361.438C954.945 346.854 954.75 330.708 954.75 313C954.75 295.292 954.945 279.146 955.336 264.562C955.727 249.979 957.159 236.893 959.633 225.305C962.237 213.716 966.273 203.625 971.742 195.031C977.341 186.438 985.219 179.341 995.375 173.742C1005.53 168.013 1018.42 163.781 1034.05 161.047C1049.8 158.182 1069.14 156.75 1092.05 156.75H1179.75C1198.5 156.75 1214.91 157.661 1228.97 159.484C1243.03 161.177 1255.14 163.846 1265.3 167.492C1275.45 171.008 1283.85 175.5 1290.49 180.969C1297.13 186.438 1302.41 192.883 1306.31 200.305C1310.35 207.727 1313.15 216.125 1314.71 225.5C1316.27 234.875 1317.05 245.292 1317.05 256.75H1279.55Z" fill="white"/>
<path d="M167.276 578.5V590.219H111.026V691H96.9639V590.219H40.7139V578.5H167.276ZM270.401 691V643.393C270.401 638.314 270.011 634.042 269.229 630.575C268.448 627.06 266.886 624.228 264.542 622.079C262.198 619.931 258.878 618.393 254.581 617.465C250.284 616.488 244.62 616 237.589 616C229.972 616 223.722 616.562 218.839 617.685C214.005 618.759 210.196 620.297 207.413 622.299C204.63 624.252 202.701 626.62 201.627 629.403C200.602 632.187 200.089 635.287 200.089 638.705V691H186.026V578.5H200.089V619.955C201.065 617.66 202.457 615.683 204.264 614.022C206.07 612.362 208.146 610.946 210.489 609.774C212.882 608.603 215.445 607.675 218.18 606.991C220.914 606.259 223.673 605.697 226.456 605.307C229.288 604.916 232.047 604.647 234.732 604.501C237.467 604.354 239.981 604.281 242.276 604.281C248.526 604.281 253.897 604.672 258.39 605.453C262.931 606.186 266.764 607.309 269.889 608.822C273.062 610.287 275.602 612.118 277.506 614.315C279.41 616.513 280.875 619.076 281.9 622.006C282.975 624.887 283.683 628.134 284.024 631.747C284.366 635.312 284.537 639.193 284.537 643.393L284.464 691H270.401ZM352.579 692.611C343.204 692.611 335.245 691.977 328.702 690.707C322.159 689.389 316.837 687.143 312.735 683.969C308.634 680.795 305.655 676.547 303.8 671.225C301.944 665.902 301.017 659.213 301.017 651.156C301.017 641.928 301.944 634.311 303.8 628.305C305.655 622.25 308.634 617.44 312.735 613.876C316.837 610.312 322.159 607.821 328.702 606.405C335.245 604.989 343.204 604.281 352.579 604.281C359.269 604.281 365.055 604.77 369.938 605.746C374.869 606.723 379.068 608.139 382.535 609.994C386.051 611.85 388.883 614.096 391.031 616.732C393.229 619.369 394.938 622.152 396.158 625.082C397.428 627.963 398.282 631.356 398.722 635.263C399.21 639.169 399.454 643.295 399.454 647.641L398.282 652.328H315.079C315.079 658.773 315.714 664.071 316.983 668.222C318.253 672.323 320.353 675.326 323.282 677.23C326.212 679.135 330.069 680.355 334.854 680.893C339.64 681.381 345.548 681.625 352.579 681.625C359.024 681.625 364.347 681.454 368.546 681.112C372.794 680.722 376.163 680.014 378.653 678.988C381.144 677.963 382.877 676.547 383.854 674.74C384.879 672.885 385.392 670.492 385.392 667.562H399.454C399.454 672.104 398.648 675.985 397.037 679.208C395.475 682.382 392.862 684.97 389.2 686.972C385.538 688.925 380.704 690.341 374.698 691.22C368.741 692.147 361.368 692.611 352.579 692.611ZM352.579 616C347.892 616 343.692 616.098 339.981 616.293C336.319 616.488 333.097 616.928 330.313 617.611C327.579 618.246 325.235 619.198 323.282 620.468C321.329 621.688 319.742 623.153 318.521 624.862C317.35 626.522 316.471 628.891 315.885 631.967C315.348 634.994 315.079 638.656 315.079 642.953H385.392C385.392 637.24 384.781 632.772 383.561 629.55C382.34 626.278 380.411 623.593 377.774 621.493C375.138 619.394 371.744 617.953 367.594 617.172C363.443 616.391 358.438 616 352.579 616ZM572.892 578.5H586.954V691H572.892V639.438H469.767V691H455.704V578.5H469.767V627.719H572.892V578.5ZM694.4 679.428C694.254 680.014 693.155 681.479 691.104 683.822C689.64 685.58 687.687 687.143 685.245 688.51C682.804 689.828 679.532 690.854 675.431 691.586C671.378 692.367 666.031 692.758 659.391 692.758C650.553 692.758 643.009 692.294 636.759 691.366C630.509 690.487 625.406 689.12 621.451 687.265C617.496 685.36 614.591 682.943 612.735 680.014C610.929 677.084 610.025 673.593 610.025 669.54C610.025 665.292 610.514 661.703 611.49 658.773C612.516 655.795 613.98 653.305 615.885 651.303C617.838 649.301 620.182 647.738 622.916 646.615C625.65 645.492 628.751 644.638 632.218 644.052C635.733 643.466 639.566 643.1 643.717 642.953C647.867 642.807 652.286 642.733 656.974 642.733C663.663 642.733 669.254 643.026 673.746 643.612C678.238 644.149 681.9 644.857 684.732 645.736C687.613 646.566 689.786 647.47 691.251 648.446C692.716 649.423 693.766 650.326 694.4 651.156C694.4 645.688 694.156 641.024 693.668 637.167C693.229 633.31 692.472 630.087 691.397 627.499C690.372 624.911 689.029 622.86 687.369 621.347C685.709 619.784 683.658 618.612 681.217 617.831C678.824 617.05 676.017 616.562 672.794 616.366C669.571 616.122 665.885 616 661.734 616C655.289 616 649.942 616.171 645.694 616.513C641.446 616.806 638.077 617.416 635.587 618.344C633.097 619.271 631.339 620.565 630.313 622.226C629.288 623.837 628.775 625.961 628.775 628.598H614.713C614.713 624.154 615.494 620.395 617.057 617.318C618.668 614.242 621.305 611.752 624.967 609.848C628.678 607.895 633.536 606.479 639.542 605.6C645.548 604.721 652.945 604.281 661.734 604.281C670.328 604.281 677.604 604.989 683.561 606.405C689.518 607.821 694.327 610.312 697.989 613.876C701.7 617.44 704.361 622.25 705.973 628.305C707.633 634.311 708.463 641.928 708.463 651.156V691H694.4V679.428ZM661.734 681.625C667.936 681.625 673.111 681.332 677.262 680.746C681.461 680.16 684.83 679.281 687.369 678.109C689.908 676.938 691.715 675.473 692.789 673.715C693.863 671.957 694.4 669.906 694.4 667.562C694.4 665.219 693.766 663.241 692.496 661.63C691.275 659.97 689.2 658.627 686.271 657.602C683.39 656.576 679.557 655.844 674.771 655.404C669.986 654.916 664.078 654.672 657.047 654.672C650.016 654.672 644.327 654.794 639.981 655.038C635.685 655.282 632.364 655.844 630.021 656.723C627.677 657.602 626.09 658.896 625.26 660.604C624.479 662.313 624.088 664.633 624.088 667.562C624.088 670.492 624.503 672.885 625.333 674.74C626.212 676.547 627.97 677.963 630.606 678.988C633.243 680.014 637.027 680.722 641.959 681.112C646.939 681.454 653.531 681.625 661.734 681.625ZM811.661 691V644.125C811.661 638.9 811.271 634.506 810.489 630.941C809.708 627.328 808.146 624.423 805.802 622.226C803.458 620.028 800.138 618.441 795.841 617.465C791.544 616.488 785.88 616 778.849 616C771.231 616 764.981 616.562 760.099 617.685C755.265 618.808 751.456 620.395 748.673 622.445C745.89 624.496 743.961 626.962 742.887 629.843C741.861 632.724 741.349 635.922 741.349 639.438V691H727.286V606.625H741.349V620.688C742.374 618.295 743.839 616.244 745.743 614.535C747.647 612.777 749.796 611.288 752.188 610.067C754.581 608.847 757.169 607.87 759.952 607.138C762.735 606.356 765.519 605.771 768.302 605.38C771.085 604.94 773.771 604.647 776.358 604.501C778.995 604.354 781.388 604.281 783.536 604.281C789.786 604.281 795.157 604.672 799.649 605.453C804.19 606.234 808.023 607.382 811.148 608.896C814.322 610.409 816.861 612.289 818.766 614.535C820.67 616.781 822.135 619.394 823.16 622.372C824.234 625.302 824.942 628.598 825.284 632.26C825.626 635.873 825.797 639.828 825.797 644.125L825.724 691H811.661ZM893.839 692.611C884.464 692.611 876.505 691.928 869.962 690.561C863.419 689.193 858.097 686.85 853.995 683.529C849.894 680.209 846.915 675.741 845.06 670.126C843.204 664.511 842.276 657.455 842.276 648.959C842.276 640.17 843.204 632.895 845.06 627.133C846.915 621.371 849.894 616.806 853.995 613.437C858.097 610.067 863.419 607.699 869.962 606.332C876.505 604.965 884.464 604.281 893.839 604.281C900.479 604.281 906.046 604.623 910.538 605.307C915.03 605.99 918.692 606.845 921.524 607.87C924.405 608.896 926.578 610.019 928.043 611.239C929.557 612.411 930.655 613.51 931.339 614.535V578.5H945.401V691H931.339V678.476C931.339 678.476 930.167 679.867 927.823 682.65C925.772 684.652 923.502 686.264 921.012 687.484C918.521 688.705 915.03 689.877 910.538 691C906.046 692.074 900.479 692.611 893.839 692.611ZM893.839 681.625C898.526 681.625 902.701 681.527 906.363 681.332C910.025 681.088 913.248 680.6 916.031 679.867C918.814 679.135 921.158 678.061 923.062 676.645C925.016 675.18 926.603 673.251 927.823 670.858C929.044 668.466 929.923 665.512 930.46 661.996C931.046 658.432 931.339 654.159 931.339 649.179C931.339 644.003 931.046 639.608 930.46 635.995C929.923 632.333 929.044 629.281 927.823 626.84C926.603 624.35 925.016 622.396 923.062 620.98C921.158 619.564 918.814 618.49 916.031 617.758C913.248 616.977 910.025 616.488 906.363 616.293C902.701 616.098 898.526 616 893.839 616C888.37 616 883.634 616.171 879.63 616.513C875.675 616.854 872.306 617.465 869.522 618.344C866.739 619.223 864.469 620.443 862.711 622.006C861.002 623.568 859.659 625.57 858.683 628.012C857.755 630.453 857.12 633.407 856.778 636.874C856.485 640.292 856.339 644.32 856.339 648.959C856.339 653.549 856.485 657.553 856.778 660.971C857.12 664.34 857.755 667.245 858.683 669.687C859.659 672.079 861.002 674.057 862.711 675.619C864.469 677.182 866.739 678.402 869.522 679.281C872.306 680.16 875.675 680.771 879.63 681.112C883.634 681.454 888.37 681.625 893.839 681.625ZM1004 691L959.464 606.625H975.87L1013.37 681.625L1048.53 606.625H1064.93L1022.75 691L1020.4 695.688C1019.23 698.031 1018.06 700.229 1016.89 702.279C1015.76 704.379 1014.47 706.283 1013 707.992C1011.54 709.75 1009.81 711.312 1007.8 712.68C1005.8 714.047 1003.34 715.194 1000.41 716.122C997.525 717.099 994.083 717.831 990.079 718.319C986.075 718.856 981.339 719.125 975.87 719.125V707.406C980.558 707.406 984.513 707.211 987.735 706.82C990.958 706.479 993.644 705.941 995.792 705.209C997.989 704.525 999.747 703.695 1001.07 702.719C1002.38 701.742 1003.48 700.644 1004.36 699.423C1005.24 698.202 1005.97 696.884 1006.56 695.468C1007.19 694.052 1007.9 692.562 1008.68 691H1004ZM1168.06 691H1154V643.393C1154 638.314 1153.65 634.042 1152.97 630.575C1152.33 627.06 1150.99 624.228 1148.94 622.079C1146.94 619.931 1144.08 618.393 1140.37 617.465C1136.71 616.488 1131.88 616 1125.87 616C1119.28 616 1113.86 616.562 1109.61 617.685C1105.36 618.759 1102.02 620.297 1099.58 622.299C1097.13 624.252 1095.43 626.62 1094.45 629.403C1093.52 632.187 1093.06 635.287 1093.06 638.705V691H1079V606.625H1093.06V619.955C1093.11 619.809 1093.33 619.32 1093.72 618.49C1094.11 617.66 1094.79 616.684 1095.77 615.561C1096.79 614.389 1098.16 613.144 1099.87 611.825C1101.63 610.507 1103.87 609.286 1106.61 608.163C1109.39 607.04 1112.74 606.112 1116.64 605.38C1120.55 604.647 1125.19 604.281 1130.56 604.281C1135.83 604.281 1140.4 604.623 1144.25 605.307C1148.16 605.941 1151.48 606.918 1154.21 608.236C1157 609.506 1159.24 611.117 1160.95 613.07C1162.71 614.975 1164.1 617.172 1165.13 619.662C1165.96 618.344 1167.25 616.806 1169.01 615.048C1170.77 613.29 1173.21 611.605 1176.33 609.994C1179.51 608.383 1183.46 607.04 1188.2 605.966C1192.94 604.843 1198.72 604.281 1205.56 604.281C1211.17 604.281 1215.98 604.672 1219.99 605.453C1224.04 606.186 1227.46 607.309 1230.24 608.822C1233.02 610.287 1235.25 612.118 1236.91 614.315C1238.61 616.513 1239.91 619.076 1240.79 622.006C1241.71 624.887 1242.33 628.134 1242.62 631.747C1242.91 635.312 1243.06 639.193 1243.06 643.393V691H1229V643.393C1229 638.314 1228.65 634.042 1227.97 630.575C1227.33 627.06 1225.99 624.228 1223.94 622.079C1221.94 619.931 1219.08 618.393 1215.37 617.465C1211.71 616.488 1206.88 616 1200.87 616C1194.28 616 1188.86 616.562 1184.61 617.685C1180.36 618.759 1177.02 620.297 1174.58 622.299C1172.13 624.252 1170.43 626.62 1169.45 629.403C1168.52 632.187 1168.06 635.287 1168.06 638.705V691ZM1345.82 679.428C1345.67 680.014 1344.57 681.479 1342.52 683.822C1341.06 685.58 1339.1 687.143 1336.66 688.51C1334.22 689.828 1330.95 690.854 1326.85 691.586C1322.79 692.367 1317.45 692.758 1310.81 692.758C1301.97 692.758 1294.42 692.294 1288.17 691.366C1281.92 690.487 1276.82 689.12 1272.87 687.265C1268.91 685.36 1266.01 682.943 1264.15 680.014C1262.34 677.084 1261.44 673.593 1261.44 669.54C1261.44 665.292 1261.93 661.703 1262.91 658.773C1263.93 655.795 1265.4 653.305 1267.3 651.303C1269.25 649.301 1271.6 647.738 1274.33 646.615C1277.07 645.492 1280.17 644.638 1283.63 644.052C1287.15 643.466 1290.98 643.1 1295.13 642.953C1299.28 642.807 1303.7 642.733 1308.39 642.733C1315.08 642.733 1320.67 643.026 1325.16 643.612C1329.65 644.149 1333.32 644.857 1336.15 645.736C1339.03 646.566 1341.2 647.47 1342.67 648.446C1344.13 649.423 1345.18 650.326 1345.82 651.156C1345.82 645.688 1345.57 641.024 1345.08 637.167C1344.64 633.31 1343.89 630.087 1342.81 627.499C1341.79 624.911 1340.45 622.86 1338.79 621.347C1337.12 619.784 1335.07 618.612 1332.63 617.831C1330.24 617.05 1327.43 616.562 1324.21 616.366C1320.99 616.122 1317.3 616 1313.15 616C1306.71 616 1301.36 616.171 1297.11 616.513C1292.86 616.806 1289.49 617.416 1287 618.344C1284.51 619.271 1282.75 620.565 1281.73 622.226C1280.7 623.837 1280.19 625.961 1280.19 628.598H1266.13C1266.13 624.154 1266.91 620.395 1268.47 617.318C1270.08 614.242 1272.72 611.752 1276.38 609.848C1280.09 607.895 1284.95 606.479 1290.96 605.6C1296.96 604.721 1304.36 604.281 1313.15 604.281C1321.74 604.281 1329.02 604.989 1334.98 606.405C1340.93 607.821 1345.74 610.312 1349.41 613.876C1353.12 617.44 1355.78 622.25 1357.39 628.305C1359.05 634.311 1359.88 641.928 1359.88 651.156V691H1345.82V679.428ZM1313.15 681.625C1319.35 681.625 1324.53 681.332 1328.68 680.746C1332.88 680.16 1336.25 679.281 1338.79 678.109C1341.32 676.938 1343.13 675.473 1344.21 673.715C1345.28 671.957 1345.82 669.906 1345.82 667.562C1345.82 665.219 1345.18 663.241 1343.91 661.63C1342.69 659.97 1340.62 658.627 1337.69 657.602C1334.81 656.576 1330.97 655.844 1326.19 655.404C1321.4 654.916 1315.49 654.672 1308.46 654.672C1301.43 654.672 1295.74 654.794 1291.4 655.038C1287.1 655.282 1283.78 655.844 1281.44 656.723C1279.09 657.602 1277.51 658.896 1276.68 660.604C1275.89 662.313 1275.5 664.633 1275.5 667.562C1275.5 670.492 1275.92 672.885 1276.75 674.74C1277.63 676.547 1279.39 677.963 1282.02 678.988C1284.66 680.014 1288.44 680.722 1293.38 681.112C1298.36 681.454 1304.95 681.625 1313.15 681.625ZM1463.08 691V644.125C1463.08 638.9 1462.69 634.506 1461.91 630.941C1461.12 627.328 1459.56 624.423 1457.22 622.226C1454.87 620.028 1451.55 618.441 1447.26 617.465C1442.96 616.488 1437.3 616 1430.26 616C1422.65 616 1416.4 616.562 1411.51 617.685C1406.68 618.808 1402.87 620.395 1400.09 622.445C1397.31 624.496 1395.38 626.962 1394.3 629.843C1393.28 632.724 1392.76 635.922 1392.76 639.438V691H1378.7V606.625H1392.76V620.688C1393.79 618.295 1395.25 616.244 1397.16 614.535C1399.06 612.777 1401.21 611.288 1403.6 610.067C1406 608.847 1408.58 607.87 1411.37 607.138C1414.15 606.356 1416.93 605.771 1419.72 605.38C1422.5 604.94 1425.19 604.647 1427.77 604.501C1430.41 604.354 1432.8 604.281 1434.95 604.281C1441.2 604.281 1446.57 604.672 1451.07 605.453C1455.61 606.234 1459.44 607.382 1462.56 608.896C1465.74 610.409 1468.28 612.289 1470.18 614.535C1472.09 616.781 1473.55 619.394 1474.58 622.372C1475.65 625.302 1476.36 628.598 1476.7 632.26C1477.04 635.873 1477.21 639.828 1477.21 644.125L1477.14 691H1463.08Z" fill="white"/>
<path d="M0 518H1493.5" stroke="white" stroke-width="10"/>
</svg>
